<?xml version="1.0" encoding="UTF-8" standalone="no"?>
<svg
   xmlns:dc="http://purl.org/dc/elements/1.1/"
   xmlns:cc="http://creativecommons.org/ns#"
   xmlns:rdf="http://www.w3.org/1999/02/22-rdf-syntax-ns#"
   xmlns:svg="http://www.w3.org/2000/svg"
   xmlns="http://www.w3.org/2000/svg"
   xmlns:sodipodi="http://sodipodi.sourceforge.net/DTD/sodipodi-0.dtd"
   xmlns:inkscape="http://www.inkscape.org/namespaces/inkscape"
   width="15.875005mm"
   height="15.875mm"
   viewBox="0 0 15.875005 15.875"
   version="1.1"
   id="svg1837"
   inkscape:export-filename="C:\Users\Ali Sayid\Silver Star Cup.png"
   inkscape:export-xdpi="96"
   inkscape:export-ydpi="96"
   inkscape:version="1.0.2-2 (e86c870879, 2021-01-15)"
   sodipodi:docname="Gold_Star_Cup.svg">
  <defs
     id="defs1831" />
  <sodipodi:namedview
     id="base"
     pagecolor="#ffffff"
     bordercolor="#666666"
     borderopacity="1.0"
     inkscape:pageopacity="0.0"
     inkscape:pageshadow="2"
     inkscape:zoom="3.959798"
     inkscape:cx="30.680067"
     inkscape:cy="31.067166"
     inkscape:document-units="mm"
     inkscape:current-layer="layer1"
     inkscape:document-rotation="0"
     showgrid="false"
     fit-margin-top="0"
     fit-margin-left="0"
     fit-margin-right="0"
     fit-margin-bottom="0"
     inkscape:window-width="1920"
     inkscape:window-height="1009"
     inkscape:window-x="-8"
     inkscape:window-y="-8"
     inkscape:window-maximized="1" />
  <metadata
     id="metadata1834">
    <rdf:RDF>
      <cc:Work
         rdf:about="">
        <dc:format>image/svg+xml</dc:format>
        <dc:type
           rdf:resource="http://purl.org/dc/dcmitype/StillImage" />
        <dc:title></dc:title>
      </cc:Work>
    </rdf:RDF>
  </metadata>
  <g
     inkscape:label="Layer 1"
     inkscape:groupmode="layer"
     id="layer1"
     transform="translate(-98.475985,-140.56242)">
    <path
       id="path837-7"
       style="fill:#ffcc00;stroke-width:0.0489683"
       d="m 101.66307,140.56242 -0.0276,0.17008 c -0.015,0.0933 -0.0276,0.3132 -0.0276,0.48883 v 0.31932 h -1.56595 -1.565935 v 0.43714 c 0,0.61923 0.07532,1.39195 0.205646,2.1159 0.268272,1.49057 0.728351,2.57364 1.458399,3.43302 0.76512,0.90057 1.61946,1.29848 2.79669,1.29848 h 0.46913 l 0.18545,0.29667 c 0.41372,0.66089 1.03123,1.27931 1.61186,1.61417 l 0.28808,0.16588 -0.012,1.39462 -0.012,1.39404 -1.14649,0.015 -1.14709,0.015 0.012,0.86913 0.012,0.86907 h -0.39934 -0.39872 v 0.48934 0.48931 h 4.01361 4.01421 v -0.48931 -0.48934 h -0.39683 -0.39746 v -0.86907 -0.86859 l -1.13577,-0.015 -1.13577,-0.015 -0.012,-1.38634 -0.012,-1.38633 0.41066,-0.26098 c 0.48682,-0.30968 0.94852,-0.77299 1.3672,-1.37029 l 0.30503,-0.43456 0.62384,-0.0336 c 0.92224,-0.0495 1.51523,-0.26577 2.14957,-0.7849 0.31488,-0.25767 0.86171,-0.93158 1.09362,-1.34704 0.62576,-1.12083 1.06348,-3.05914 1.06348,-4.70823 v -0.4366 l -1.57413,-0.012 -1.57474,-0.015 0.012,-0.31416 c 0.006,-0.17278 -9.9e-4,-0.38645 -0.018,-0.47536 l -0.03,-0.16168 h -4.75443 z m 4.76198,0.99314 0.89175,2.16497 2.72186,0.006 -2.23069,1.36566 0.83141,2.12883 -2.26969,-1.32119 -2.2074,1.30829 0.82762,-2.18207 -2.19672,-1.3207 2.78221,-0.027 z m 4.72172,1.23491 h 1.05277 1.05338 v 0.19108 c 0,0.28167 -0.16595,1.17546 -0.31694,1.70824 -0.41967,1.48079 -1.19979,2.45536 -2.19798,2.74528 v 0 c -0.15724,0.0453 -0.37078,0.0837 -0.47419,0.0837 h -0.18815 l 0.15544,-0.37929 c 0.4296,-1.05133 0.71599,-2.31846 0.86345,-3.82001 z m -9.96669,0.006 c 0.42966,0 0.51633,0.018 0.51633,0.0696 0,0.30399 0.16021,1.49052 0.28865,2.13557 0.16726,0.83995 0.36136,1.51419 0.61379,2.13195 0.0888,0.21717 0.15545,0.39964 0.14779,0.40558 -0.007,0.006 -0.13537,-0.006 -0.28363,-0.027 -0.69979,-0.10259 -1.18605,-0.39179 -1.66971,-0.99314 -0.40717,-0.50629 -0.66012,-1.01813 -0.881076,-1.78056 -0.14392,-0.4966 -0.312006,-1.35103 -0.340862,-1.73199 l -0.01441,-0.19018 1.069768,-0.015 c 0.22899,-0.003 0.41021,-0.006 0.55342,-0.006 z" />
  </g>
</svg>
