<?xml version="1.0" encoding="UTF-8" standalone="no"?>
<svg
   xmlns:dc="http://purl.org/dc/elements/1.1/"
   xmlns:cc="http://creativecommons.org/ns#"
   xmlns:rdf="http://www.w3.org/1999/02/22-rdf-syntax-ns#"
   xmlns:svg="http://www.w3.org/2000/svg"
   xmlns="http://www.w3.org/2000/svg"
   xmlns:sodipodi="http://sodipodi.sourceforge.net/DTD/sodipodi-0.dtd"
   xmlns:inkscape="http://www.inkscape.org/namespaces/inkscape"
   width="11.56149mm"
   height="15.875mm"
   viewBox="0 0 11.56149 15.875"
   version="1.1"
   id="svg1837"
   inkscape:export-filename="C:\Users\Ali Sayid\Silver Star Cup.png"
   inkscape:export-xdpi="96"
   inkscape:export-ydpi="96"
   inkscape:version="1.0.2-2 (e86c870879, 2021-01-15)"
   sodipodi:docname="Bronze_Football.svg">
  <defs
     id="defs1831" />
  <sodipodi:namedview
     id="base"
     pagecolor="#ffffff"
     bordercolor="#666666"
     borderopacity="1.0"
     inkscape:pageopacity="0.0"
     inkscape:pageshadow="2"
     inkscape:zoom="5.6"
     inkscape:cx="8.5482663"
     inkscape:cy="47.309523"
     inkscape:document-units="mm"
     inkscape:current-layer="layer1"
     inkscape:document-rotation="0"
     showgrid="false"
     fit-margin-top="0"
     fit-margin-left="0"
     fit-margin-right="0"
     fit-margin-bottom="0"
     inkscape:window-width="1920"
     inkscape:window-height="1009"
     inkscape:window-x="-8"
     inkscape:window-y="-8"
     inkscape:window-maximized="1" />
  <metadata
     id="metadata1834">
    <rdf:RDF>
      <cc:Work
         rdf:about="">
        <dc:format>image/svg+xml</dc:format>
        <dc:type
           rdf:resource="http://purl.org/dc/dcmitype/StillImage" />
        <dc:title></dc:title>
      </cc:Work>
    </rdf:RDF>
  </metadata>
  <g
     inkscape:label="Layer 1"
     inkscape:groupmode="layer"
     id="layer1"
     transform="translate(-98.475989,-140.56242)">
    <path
       style="fill:#ff0000;stroke-width:0.0533166"
       d="m 99.887038,155.90486 v -0.53285 h 0.434452 0.43445 l -0.0142,-0.94636 -0.0143,-0.94624 1.24845,-0.0156 1.24847,-0.0156 0.0133,-1.51844 2.03953,0.009 0.012,1.50969 1.23644,0.0156 1.23646,0.0156 v 0.94622 0.94624 h 0.43218 0.43216 v 0.53276 0.5328 h -4.36959 -4.369613 z"
       id="path837"
       sodipodi:nodetypes="cccccccccccccccccccccc" />
    <path
       style="fill:#ff6600;stroke-width:0.0386078"
       d="m 101.8676,151.61935 c -1.40014,-0.72536 -2.191043,-1.50722 -2.799746,-2.76773 -0.532462,-1.10264 -0.697462,-2.15445 -0.52799,-3.36595 0.08037,-0.57456 0.374526,-1.4403 0.661004,-1.94543 0.609474,-1.07462 1.432172,-1.84333 2.551362,-2.38392 1.43826,-0.69471 2.90339,-0.77982 4.40663,-0.25599 1.50324,0.52384 2.59784,1.50095 3.29219,2.93882 0.4294,0.88919 0.60059,1.64756 0.58552,2.59361 -0.0108,0.67756 -0.0943,1.13641 -0.3294,1.81101 -0.52314,1.50213 -1.50107,2.59604 -2.94027,3.29076 -1.09529,0.52871 -2.13953,0.69293 -3.35659,0.52786 -0.35641,-0.0484 -1.3087,-0.32182 -1.54271,-0.44304 z m 1.47173,0.18618 c 0.71065,0.12152 1.59512,0.0842 2.30456,-0.0973 l 0.25565,-0.0654 -0.22585,-0.21554 -0.22586,-0.21553 -0.33961,0.0318 c -0.36078,0.0338 -1.41687,0.0552 -1.70052,0.0345 -0.13615,-0.01 -0.18908,0.009 -0.26821,0.0947 -0.32561,0.35376 -0.3042,0.32158 -0.23095,0.34711 0.0369,0.0128 0.2307,0.0514 0.43079,0.0856 z m 0.49276,-0.76152 c 0.62837,0.004 1.09777,-0.0146 1.38544,-0.0532 0.25912,-0.0348 0.39327,-0.15409 0.86315,-0.76756 0.35565,-0.46433 0.49914,-0.69836 0.44066,-0.71875 -0.0202,-0.007 -0.28523,-0.34053 -0.5891,-0.74115 l -0.55249,-0.7284 -0.45227,0.0477 c -0.48727,0.0514 -1.04288,0.0536 -1.41911,0.006 -0.1292,-0.0165 -0.26021,-0.0186 -0.29112,-0.005 -0.0598,0.0269 -0.54465,0.66759 -0.88992,1.17596 l -0.20784,0.30602 0.20614,0.30951 c 0.40244,0.60424 0.80334,1.10215 0.92187,1.14494 0.0324,0.0121 0.29555,0.0226 0.58459,0.0242 z m -4.108909,-1.65011 c 0.01398,-0.0345 0.07225,-0.15672 0.129656,-0.27162 l 0.104334,-0.2089 -0.176375,-0.38848 c -0.180694,-0.39795 -0.365165,-0.92839 -0.480132,-1.38055 l -0.06482,-0.25478 -0.226408,-0.10713 c -0.124522,-0.0589 -0.240938,-0.10014 -0.258686,-0.0916 -0.09722,0.0469 0.139539,1.1547 0.36894,1.72627 0.129613,0.32297 0.496504,1.00801 0.551103,1.02904 0.01478,0.006 0.03845,-0.0178 0.05236,-0.0523 z m 2.164629,0.0462 c 0.0154,-0.008 0.17279,-0.21936 0.34967,-0.47085 0.17686,-0.2515 0.42205,-0.58556 0.54487,-0.74235 l 0.22328,-0.28508 -0.22869,-0.53433 c -0.24541,-0.5734 -0.44384,-1.16295 -0.47989,-1.42575 l -0.0223,-0.16255 -0.39778,-0.11906 c -0.21877,-0.0655 -0.62542,-0.18742 -0.90365,-0.271 l -0.50587,-0.15193 -0.30177,0.39158 c -0.274836,0.35665 -0.598336,0.87918 -0.668091,1.07915 -0.08043,0.23058 0.560491,2.01892 0.767811,2.14243 0.11285,0.0672 1.58721,0.5668 1.62242,0.54974 z m 5.25586,-0.18322 c 0.20781,-0.0706 0.58748,-0.21497 0.84374,-0.32088 l 0.46592,-0.19254 0.11785,-0.33785 c 0.12503,-0.35841 0.41545,-1.49441 0.43318,-1.6944 0.007,-0.084 -0.0569,-0.22851 -0.21897,-0.49178 -0.22934,-0.37255 -0.70647,-1.03656 -0.75763,-1.05438 -0.0149,-0.005 -0.40709,0.11585 -0.87155,0.269 -0.46446,0.15314 -0.87347,0.28355 -0.90887,0.2898 -0.0556,0.01 -0.0758,0.063 -0.14718,0.38769 -0.0455,0.20698 -0.18081,0.69166 -0.30062,1.07707 l -0.21784,0.70074 0.55521,0.73509 c 0.30536,0.40431 0.57181,0.74087 0.59208,0.74794 0.0202,0.007 0.20688,-0.0449 0.41468,-0.1155 z m 1.91598,-0.145 c 0.41006,-0.69992 0.75771,-1.91409 0.73645,-2.572 l -0.004,-0.12161 -0.26572,0.12982 -0.26571,0.12983 -0.0875,0.41917 c -0.0481,0.23054 -0.17707,0.70983 -0.28664,1.06509 l -0.1992,0.64593 0.0952,0.24775 c 0.0523,0.13627 0.10814,0.25229 0.12404,0.25783 0.0159,0.006 0.0848,-0.0853 0.15304,-0.20181 z m -6.93943,-3.5883 0.23356,0.0555 0.37481,-0.30966 c 0.20614,-0.1703 0.58567,-0.45021 0.84338,-0.62203 0.2577,-0.17179 0.49092,-0.32741 0.51829,-0.3458 0.0331,-0.0222 0.0425,-0.1438 0.028,-0.36192 -0.0119,-0.18068 -0.0221,-0.60453 -0.0224,-0.9419 l -7.3e-4,-0.6134 -0.46971,-0.15985 c -0.41314,-0.14061 -0.98659,-0.281 -1.18913,-0.29116 -0.12657,-0.007 -1.25333,0.74356 -1.71117,1.13886 l -0.15369,0.13269 -0.0313,0.43643 c -0.0326,0.45454 -0.032,0.72404 0.002,1.13279 l 0.0203,0.24214 0.66198,0.22591 c 0.3641,0.12424 0.76709,0.25088 0.89555,0.28141 z m 5.16964,-0.38573 c 0.36087,-0.11872 0.66334,-0.23656 0.67217,-0.26185 0.0374,-0.10706 0.0218,-0.72246 -0.0305,-1.2025 -0.0434,-0.39895 -0.0758,-0.53731 -0.14204,-0.60597 -0.21814,-0.2261 -1.23666,-0.925 -1.61226,-1.10629 -0.17212,-0.0831 -0.18286,-0.0823 -0.64946,0.046 -0.57838,0.159 -1.09842,0.33902 -1.14771,0.39729 -0.0546,0.0646 -0.059,1.09095 -0.007,1.69263 l 0.0201,0.23315 0.29515,0.17519 c 0.2834,0.16818 1.04221,0.69254 1.30798,0.90384 0.1466,0.11654 0.0576,0.1352 1.29372,-0.27146 z m -7.11553,-2.15069 0.23349,0.0306 0.3352,-0.27009 c 0.28482,-0.22951 0.8773,-0.63956 1.35386,-0.93703 l 0.12607,-0.0787 0.0246,-0.26721 c 0.0136,-0.14698 0.0136,-0.2711 0,-0.27585 -0.0134,-0.004 -0.19605,0.0741 -0.40591,0.17521 -0.4326,0.20845 -0.90173,0.51551 -1.22434,0.80144 -0.19306,0.17108 -0.709749,0.70993 -0.726325,0.75746 -0.0083,0.0238 0.0134,0.0288 0.283145,0.0642 z m 8.10332,-0.11279 c 0.2289,-0.0412 0.24169,-0.0491 0.19444,-0.11953 -0.22259,-0.3318 -1.02245,-0.98037 -1.55829,-1.26356 -0.50251,-0.26557 -0.82174,-0.39948 -0.8384,-0.3517 -0.0328,0.094 0.078,0.512 0.14694,0.55454 0.0403,0.0248 0.25379,0.15601 0.4744,0.29146 0.43395,0.26647 0.96298,0.63797 1.13634,0.79799 0.14873,0.13727 0.16648,0.14091 0.44457,0.0908 z"
       id="path837-9-7-7-4-4-4-8" />
  </g>
</svg>
