<?xml version="1.0" encoding="UTF-8" standalone="no"?>
<svg
   xmlns:dc="http://purl.org/dc/elements/1.1/"
   xmlns:cc="http://creativecommons.org/ns#"
   xmlns:rdf="http://www.w3.org/1999/02/22-rdf-syntax-ns#"
   xmlns:svg="http://www.w3.org/2000/svg"
   xmlns="http://www.w3.org/2000/svg"
   xmlns:sodipodi="http://sodipodi.sourceforge.net/DTD/sodipodi-0.dtd"
   xmlns:inkscape="http://www.inkscape.org/namespaces/inkscape"
   width="11.56149mm"
   height="15.875mm"
   viewBox="0 0 11.56149 15.875"
   version="1.1"
   id="svg1837"
   inkscape:export-filename="C:\Users\Ali Sayid\Silver Star Cup.png"
   inkscape:export-xdpi="96"
   inkscape:export-ydpi="96"
   inkscape:version="1.0.2-2 (e86c870879, 2021-01-15)"
   sodipodi:docname="Gold_Football.svg">
  <defs
     id="defs1831" />
  <sodipodi:namedview
     id="base"
     pagecolor="#ffffff"
     bordercolor="#666666"
     borderopacity="1.0"
     inkscape:pageopacity="0.0"
     inkscape:pageshadow="2"
     inkscape:zoom="5.6"
     inkscape:cx="8.5482663"
     inkscape:cy="47.309523"
     inkscape:document-units="mm"
     inkscape:current-layer="layer1"
     inkscape:document-rotation="0"
     showgrid="false"
     fit-margin-top="0"
     fit-margin-left="0"
     fit-margin-right="0"
     fit-margin-bottom="0"
     inkscape:window-width="1920"
     inkscape:window-height="1009"
     inkscape:window-x="-8"
     inkscape:window-y="-8"
     inkscape:window-maximized="1" />
  <metadata
     id="metadata1834">
    <rdf:RDF>
      <cc:Work
         rdf:about="">
        <dc:format>image/svg+xml</dc:format>
        <dc:type
           rdf:resource="http://purl.org/dc/dcmitype/StillImage" />
        <dc:title></dc:title>
      </cc:Work>
    </rdf:RDF>
  </metadata>
  <g
     inkscape:label="Layer 1"
     inkscape:groupmode="layer"
     id="layer1"
     transform="translate(-98.475989,-140.56242)">
    <g
       id="g853"
       transform="matrix(0.72828281,0,0,0.72828281,26.757619,38.193225)">
      <path
         style="fill:#ff0000;stroke-width:0.0732086"
         d="m 100.41349,161.62902 v -0.73165 h 0.59654 0.59655 l -0.0195,-1.29945 -0.0196,-1.29927 1.71424,-0.0214 1.71427,-0.0214 0.0182,-2.08496 2.80046,0.012 0.0165,2.07294 1.69775,0.0214 1.69777,0.0214 v 1.29926 1.29927 h 0.59342 0.5934 v 0.73153 0.73158 h -5.99985 -5.99989 z"
         id="path837"
         sodipodi:nodetypes="cccccccccccccccccccccc" />
      <path
         style="fill:#ffcc00;stroke-width:0.0530121"
         d="m 103.13299,155.74461 c -1.92252,-0.99598 -3.00851,-2.06955 -3.844315,-3.80035 -0.73112,-1.51402 -0.95768,-2.95826 -0.72498,-4.62176 0.11036,-0.78892 0.51426,-1.97766 0.90762,-2.67125 0.836865,-1.47556 1.966505,-2.53107 3.503255,-3.27335 1.97487,-0.9539 3.98663,-1.07077 6.05072,-0.3515 2.06408,0.71928 3.56707,2.06095 4.52048,4.03528 0.5896,1.22094 0.82467,2.26225 0.80397,3.56127 -0.0148,0.93035 -0.12942,1.56039 -0.4523,2.48668 -0.71832,2.06256 -2.06111,3.5646 -4.03726,4.51852 -1.50394,0.72596 -2.93777,0.95145 -4.60891,0.7248 -0.48939,-0.0664 -1.79696,-0.44189 -2.11828,-0.60834 z m 2.02082,0.25565 c 0.97579,0.16685 2.19024,0.11558 3.16437,-0.13358 l 0.35103,-0.0898 -0.31011,-0.29596 -0.31013,-0.29594 -0.46631,0.0437 c -0.49539,0.0464 -1.94549,0.0758 -2.33498,0.0474 -0.18694,-0.0136 -0.25962,0.012 -0.36827,0.13008 -0.44709,0.48574 -0.4177,0.44156 -0.31712,0.47662 0.0506,0.0176 0.31678,0.0705 0.59152,0.11746 z m 0.6766,-1.04564 c 0.86281,0.005 1.50735,-0.0201 1.90234,-0.0731 0.3558,-0.0478 0.54,-0.21159 1.18519,-1.05393 0.48834,-0.63758 0.68536,-0.95892 0.60507,-0.98691 -0.0277,-0.01 -0.39166,-0.46759 -0.80889,-1.01768 l -0.75863,-1.00016 -0.621,0.0655 c -0.66907,0.0706 -1.43198,0.0736 -1.94858,0.008 -0.1774,-0.0226 -0.35728,-0.0256 -0.39973,-0.007 -0.0821,0.0369 -0.74785,0.91666 -1.22194,1.6147 l -0.28538,0.4202 0.28304,0.42498 c 0.55259,0.82968 1.10306,1.51336 1.26582,1.57212 0.0445,0.0166 0.40582,0.031 0.80269,0.0332 z m -5.64191,-2.26576 c 0.0192,-0.0474 0.0992,-0.21519 0.17803,-0.37295 l 0.14326,-0.28685 -0.24218,-0.53341 c -0.24811,-0.54642 -0.501405,-1.27477 -0.659265,-1.89563 l -0.089,-0.34983 -0.31088,-0.14711 c -0.17098,-0.0809 -0.33083,-0.13749 -0.3552,-0.12574 -0.13349,0.0644 0.1916,1.58551 0.50659,2.37033 0.17797,0.44347 0.681745,1.38409 0.756715,1.41296 0.0203,0.008 0.0528,-0.0245 0.0719,-0.0718 z m 2.97224,0.0635 c 0.0212,-0.0103 0.23726,-0.30121 0.48012,-0.64653 0.24285,-0.34533 0.57952,-0.80402 0.74816,-1.01931 l 0.30659,-0.39144 -0.31401,-0.73369 c -0.33697,-0.78733 -0.60944,-1.59683 -0.65894,-1.95769 l -0.0306,-0.22319 -0.54619,-0.16348 c -0.3004,-0.0899 -0.85876,-0.25735 -1.2408,-0.37211 l -0.6946,-0.20861 -0.41436,0.53767 c -0.37738,0.48972 -0.821575,1.2072 -0.917355,1.48177 -0.11044,0.31661 0.769605,2.77217 1.054275,2.94176 0.15495,0.0923 2.17939,0.77827 2.22773,0.75485 z m 7.21678,-0.25158 c 0.28534,-0.0969 0.80667,-0.29518 1.15853,-0.4406 l 0.63976,-0.26438 0.16182,-0.4639 c 0.17167,-0.49212 0.57044,-2.05196 0.59479,-2.32656 0.0102,-0.11534 -0.0781,-0.31377 -0.30067,-0.67526 -0.3149,-0.51155 -0.97005,-1.4233 -1.04029,-1.44777 -0.0204,-0.007 -0.55898,0.15908 -1.19672,0.36936 -0.63775,0.21028 -1.19935,0.38935 -1.24797,0.39793 -0.0763,0.0135 -0.10405,0.0865 -0.20209,0.53234 -0.0625,0.28419 -0.24826,0.94971 -0.41277,1.47891 l -0.29912,0.96218 0.76236,1.00935 c 0.41929,0.55515 0.78514,1.01728 0.81297,1.02699 0.0278,0.01 0.28407,-0.0617 0.5694,-0.15859 z m 2.63082,-0.1991 c 0.56305,-0.96105 1.0404,-2.62822 1.01122,-3.5316 l -0.005,-0.16698 -0.36486,0.17826 -0.36485,0.17826 -0.1201,0.57556 c -0.066,0.31656 -0.24314,0.97467 -0.39358,1.46247 l -0.27353,0.88692 0.13065,0.34019 c 0.0718,0.18711 0.14849,0.34642 0.17033,0.35403 0.0218,0.008 0.11638,-0.11711 0.21013,-0.27711 z m -9.52848,-4.92707 0.32069,0.0762 0.51465,-0.42518 c 0.28306,-0.23385 0.80418,-0.61819 1.15804,-0.85411 0.35385,-0.23589 0.67409,-0.44956 0.71167,-0.47482 0.0454,-0.0305 0.0583,-0.19745 0.0385,-0.49695 -0.0164,-0.24808 -0.0303,-0.83007 -0.0308,-1.29331 l -0.001,-0.84226 -0.64496,-0.21948 c -0.56728,-0.19307 -1.35468,-0.38584 -1.63278,-0.3998 -0.1738,-0.009 -1.72094,1.02098 -2.3496,1.56376 l -0.21103,0.1822 -0.043,0.59926 c -0.0448,0.62413 -0.044,0.99417 0.003,1.55543 l 0.0279,0.33247 0.90896,0.3102 c 0.49995,0.17059 1.05329,0.34448 1.22968,0.38641 z m 7.09839,-0.52964 c 0.49551,-0.16302 0.91083,-0.32482 0.92295,-0.35955 0.0513,-0.147 0.0299,-0.992 -0.0418,-1.65114 -0.0596,-0.5478 -0.1041,-0.73778 -0.19504,-0.83206 -0.29952,-0.31045 -1.69805,-1.2701 -2.21378,-1.51903 -0.23634,-0.11408 -0.25108,-0.11305 -0.89177,0.0631 -0.79417,0.21833 -1.50824,0.46551 -1.57591,0.54552 -0.075,0.0887 -0.081,1.49798 -0.01,2.32414 l 0.0276,0.32014 0.40527,0.24054 c 0.38913,0.23094 1.43105,0.95093 1.79598,1.24106 0.20129,0.16002 0.0791,0.18565 1.7764,-0.37274 z m -9.77028,-2.9531 0.3206,0.042 0.46026,-0.37086 c 0.39109,-0.31513 1.20462,-0.87817 1.85898,-1.28662 l 0.1731,-0.10805 0.0338,-0.36691 c 0.0186,-0.20181 0.0187,-0.37224 0,-0.37876 -0.0184,-0.006 -0.2692,0.10176 -0.55735,0.24058 -0.59401,0.28621 -1.23817,0.70784 -1.68114,1.10044 -0.26509,0.23492 -0.97455,0.9748 -0.99731,1.04007 -0.0114,0.0327 0.0184,0.0395 0.38878,0.0881 z m 11.12661,-0.15487 c 0.3143,-0.0566 0.33186,-0.0674 0.26699,-0.16413 -0.30564,-0.45559 -1.40392,-1.34613 -2.13968,-1.73498 -0.68999,-0.36466 -1.12833,-0.54853 -1.15121,-0.48292 -0.0451,0.1291 0.10704,0.70302 0.20177,0.76143 0.0553,0.0341 0.34847,0.21422 0.65139,0.40021 0.59586,0.36589 1.32227,0.87599 1.5603,1.09571 0.20423,0.18849 0.2286,0.19348 0.61044,0.12468 z"
         id="path837-9-7-7-4-4-4-8" />
    </g>
  </g>
</svg>
