<?xml version="1.0" encoding="UTF-8" standalone="no"?>
<svg
   xmlns:dc="http://purl.org/dc/elements/1.1/"
   xmlns:cc="http://creativecommons.org/ns#"
   xmlns:rdf="http://www.w3.org/1999/02/22-rdf-syntax-ns#"
   xmlns:svg="http://www.w3.org/2000/svg"
   xmlns="http://www.w3.org/2000/svg"
   xmlns:sodipodi="http://sodipodi.sourceforge.net/DTD/sodipodi-0.dtd"
   xmlns:inkscape="http://www.inkscape.org/namespaces/inkscape"
   width="15.875mm"
   height="15.875mm"
   viewBox="0 0 15.875 15.875"
   version="1.1"
   id="svg875"
   inkscape:version="1.0.2-2 (e86c870879, 2021-01-15)"
   sodipodi:docname="Check Mark.svg">
  <defs
     id="defs869" />
  <sodipodi:namedview
     id="base"
     pagecolor="#ffffff"
     bordercolor="#666666"
     borderopacity="1.0"
     inkscape:pageopacity="0.0"
     inkscape:pageshadow="2"
     inkscape:zoom="0.35"
     inkscape:cx="-321.7085"
     inkscape:cy="392.57719"
     inkscape:document-units="mm"
     inkscape:current-layer="layer1"
     inkscape:document-rotation="0"
     showgrid="false"
     fit-margin-top="0"
     fit-margin-left="0"
     fit-margin-right="0"
     fit-margin-bottom="0"
     inkscape:window-width="1920"
     inkscape:window-height="1009"
     inkscape:window-x="-8"
     inkscape:window-y="-8"
     inkscape:window-maximized="1" />
  <metadata
     id="metadata872">
    <rdf:RDF>
      <cc:Work
         rdf:about="">
        <dc:format>image/svg+xml</dc:format>
        <dc:type
           rdf:resource="http://purl.org/dc/dcmitype/StillImage" />
        <dc:title></dc:title>
      </cc:Work>
    </rdf:RDF>
  </metadata>
  <g
     inkscape:label="Layer 1"
     inkscape:groupmode="layer"
     id="layer1"
     transform="translate(-190.95204,-44.297285)">
    <path
       id="path1467"
       style="fill:#00ff00;stroke-width:0.043183"
       d="m 198.86831,44.297313 a 7.9375,7.9375 0 1 0 7.95873,7.937439 7.9375,7.9375 0 0 0 -7.95873,-7.937439 z m 4.2126,3.775427 c 0.12388,0 0.24776,0.04741 0.34268,0.142329 l 0.82575,0.825757 c 0.18985,0.189843 0.18985,0.495508 0,0.68535 l -6.04442,6.044424 -0.82576,0.825759 c -0.18984,0.189841 -0.4955,0.189841 -0.68534,0 l -0.82568,-0.825759 -3.02221,-3.022212 c -0.18985,-0.189842 -0.18985,-0.495506 0,-0.685349 l 0.82575,-0.825757 c 0.18984,-0.189842 0.49551,-0.189842 0.68535,0 l 2.67954,2.679538 5.70167,-5.701751 c 0.0949,-0.09492 0.2188,-0.142329 0.34267,-0.142329 z" />
  </g>
</svg>
