<?xml version="1.0" encoding="UTF-8" standalone="no"?>
<svg
   xmlns:dc="http://purl.org/dc/elements/1.1/"
   xmlns:cc="http://creativecommons.org/ns#"
   xmlns:rdf="http://www.w3.org/1999/02/22-rdf-syntax-ns#"
   xmlns:svg="http://www.w3.org/2000/svg"
   xmlns="http://www.w3.org/2000/svg"
   xmlns:sodipodi="http://sodipodi.sourceforge.net/DTD/sodipodi-0.dtd"
   xmlns:inkscape="http://www.inkscape.org/namespaces/inkscape"
   width="15.875005mm"
   height="15.875mm"
   viewBox="0 0 15.875005 15.875"
   version="1.1"
   id="svg1837"
   inkscape:export-filename="C:\Users\Ali Sayid\Silver Star Cup.png"
   inkscape:export-xdpi="96"
   inkscape:export-ydpi="96"
   inkscape:version="1.0.2-2 (e86c870879, 2021-01-15)"
   sodipodi:docname="Bronze_Medal.svg">
  <defs
     id="defs1831" />
  <sodipodi:namedview
     id="base"
     pagecolor="#ffffff"
     bordercolor="#666666"
     borderopacity="1.0"
     inkscape:pageopacity="0.0"
     inkscape:pageshadow="2"
     inkscape:zoom="3.959798"
     inkscape:cx="30.680067"
     inkscape:cy="31.067166"
     inkscape:document-units="mm"
     inkscape:current-layer="layer1"
     inkscape:document-rotation="0"
     showgrid="false"
     fit-margin-top="0"
     fit-margin-left="0"
     fit-margin-right="0"
     fit-margin-bottom="0"
     inkscape:window-width="1920"
     inkscape:window-height="1009"
     inkscape:window-x="-8"
     inkscape:window-y="-8"
     inkscape:window-maximized="1" />
  <metadata
     id="metadata1834">
    <rdf:RDF>
      <cc:Work
         rdf:about="">
        <dc:format>image/svg+xml</dc:format>
        <dc:type
           rdf:resource="http://purl.org/dc/dcmitype/StillImage" />
        <dc:title></dc:title>
      </cc:Work>
    </rdf:RDF>
  </metadata>
  <g
     inkscape:label="Layer 1"
     inkscape:groupmode="layer"
     id="layer1"
     transform="translate(-98.475985,-140.56242)">
    <g
       id="g1312-3-9"
       transform="matrix(0.16574384,0,0,0.16574384,113.91368,246.06273)">
      <path
         id="rect1287-3-8"
         style="fill:#ff0000;stroke-width:0.611974"
         d="m -60.87181,-636.5263 h -15.26758 l 21.62109,36.37723 h 18.5332 l 21.6211,-36.37691 -15.26758,-3.2e-4 -15.62109,26.85973 z"
         sodipodi:nodetypes="cccccccc" />
      <path
         id="path1029-3-6"
         style="fill:#ff6600;fill-opacity:1;stroke-width:0.472991"
         d="m -170.60156,908.95703 a 30.389124,30.389124 0 0 0 -30.38867,30.38867 30.389124,30.389124 0 0 0 30.38867,30.39063 30.389124,30.389124 0 0 0 30.39062,-30.39063 30.389124,30.389124 0 0 0 -30.39062,-30.38867 z m 0,3.13477 a 27.255195,27.255195 0 0 1 27.25586,27.25586 27.255195,27.255195 0 0 1 -27.25391,27.2539 27.255195,27.255195 0 0 1 -27.25586,-27.2539 27.255195,27.255195 0 0 1 27.25391,-27.25586 z m -0.0117,2.04882 a 25.206602,25.206602 0 0 0 -25.19531,25.20704 25.206602,25.206602 0 0 0 25.20898,25.20507 25.206602,25.206602 0 0 0 25.20703,-25.20507 25.206602,25.206602 0 0 0 -25.20898,-25.20704 25.206602,25.206602 0 0 0 -0.0117,0 z m 0.041,3.20508 5.02539,15.15235 15.9629,0.15625 -12.85547,9.46289 4.78125,15.22851 -12.97071,-9.30273 -13.00586,9.25586 4.83789,-15.21289 -12.82031,-9.50977 15.96289,-0.0977 z"
         transform="translate(125.34889,-1510.4823)" />
    </g>
  </g>
</svg>
