<?xml version="1.0" encoding="UTF-8" standalone="no"?>
<svg
   xmlns:dc="http://purl.org/dc/elements/1.1/"
   xmlns:cc="http://creativecommons.org/ns#"
   xmlns:rdf="http://www.w3.org/1999/02/22-rdf-syntax-ns#"
   xmlns:svg="http://www.w3.org/2000/svg"
   xmlns="http://www.w3.org/2000/svg"
   xmlns:sodipodi="http://sodipodi.sourceforge.net/DTD/sodipodi-0.dtd"
   xmlns:inkscape="http://www.inkscape.org/namespaces/inkscape"
   version="1.1"
   id="svg4377"
   width="60.008801"
   height="60.000004"
   viewBox="0 0 60.008801 60.000004"
   sodipodi:docname="Facebook.svg"
   inkscape:version="1.0.2-2 (e86c870879, 2021-01-15)">
  <metadata
     id="metadata4383">
    <rdf:RDF>
      <cc:Work
         rdf:about="">
        <dc:format>image/svg+xml</dc:format>
        <dc:type
           rdf:resource="http://purl.org/dc/dcmitype/StillImage" />
        <dc:title></dc:title>
      </cc:Work>
    </rdf:RDF>
  </metadata>
  <defs
     id="defs4381" />
  <sodipodi:namedview
     pagecolor="#ffffff"
     bordercolor="#666666"
     borderopacity="1"
     objecttolerance="10"
     gridtolerance="10"
     guidetolerance="10"
     inkscape:pageopacity="0"
     inkscape:pageshadow="2"
     inkscape:window-width="1920"
     inkscape:window-height="1009"
     id="namedview4379"
     showgrid="false"
     fit-margin-top="0"
     fit-margin-left="0"
     fit-margin-right="0"
     fit-margin-bottom="0"
     inkscape:zoom="3.5083333"
     inkscape:cx="-37.391411"
     inkscape:cy="26.503842"
     inkscape:window-x="-8"
     inkscape:window-y="-8"
     inkscape:window-maximized="1"
     inkscape:current-layer="g4385" />
  <g
     inkscape:groupmode="layer"
     inkscape:label="Image"
     id="g4385"
     transform="translate(-89.4868,-61.31627)">
    <path
       style="fill:#0066ff;stroke-width:0.200029"
       d="m 97.9262,120.92005 c -2.0996,-0.55003 -3.3336,-1.28204 -5.043,-2.99138 -1.7331,-1.73309 -2.4446,-2.94765 -3.0007,-5.12191 -0.3813,-1.49062 -0.3957,-2.2753 -0.3957,-21.48607 0,-19.21078 0.014,-19.99546 0.3957,-21.48608 0.5561,-2.17426 1.2676,-3.38882 3.0007,-5.12191 1.7331,-1.7331 2.9477,-2.44466 5.1219,-3.00074 1.4907,-0.38124 2.2753,-0.39569 21.4861,-0.39569 19.2108,0 19.9955,0.0144 21.4861,0.39569 2.1742,0.55608 3.3888,1.26764 5.1219,3.00074 1.7331,1.73309 2.4447,2.94765 3.0007,5.12191 0.3813,1.49062 0.3957,2.2753 0.3957,21.48608 0,19.21077 -0.014,19.99545 -0.3957,21.48607 -0.556,2.17426 -1.2676,3.38882 -3.0007,5.12191 -1.7331,1.7331 -2.9477,2.44466 -5.1219,3.00074 -1.4924,0.38168 -2.256,0.3953 -21.5681,0.38468 -19.062,-0.0105 -20.091,-0.0294 -21.483,-0.39404 z m 33.1185,-16.84749 0.052,-10.35152 h 2.7864 2.7863 l 0.1159,-0.85013 c 0.3542,-2.59851 0.6824,-6.03169 0.5908,-6.1799 -0.058,-0.0941 -1.5024,-0.17103 -3.2094,-0.17103 h -3.1038 l 0.065,-2.79543 c 0.088,-3.78918 -0.033,-3.67129 3.9207,-3.80554 l 2.9454,-0.10002 0.055,-3.46549 0.055,-3.46549 -5.1555,0.0715 c -4.7848,0.0663 -5.2368,0.10384 -6.2847,0.52156 -2.3299,0.92872 -3.6643,2.33073 -4.3979,4.62067 -0.3354,1.04693 -0.4478,2.05605 -0.5479,4.91775 l -0.126,3.60053 -1.7502,0.0578 -1.7503,0.0578 v 3.49273 3.49273 h 1.8003 1.8002 v 10.26818 c 0,5.64749 0.062,10.32983 0.137,10.40519 0.075,0.0754 2.1682,0.11286 4.6507,0.0833 l 4.5137,-0.0537 z"
       id="path837" />
  </g>
</svg>
