<?xml version="1.0" encoding="UTF-8" standalone="no"?>
<svg
   xmlns:dc="http://purl.org/dc/elements/1.1/"
   xmlns:cc="http://creativecommons.org/ns#"
   xmlns:rdf="http://www.w3.org/1999/02/22-rdf-syntax-ns#"
   xmlns:svg="http://www.w3.org/2000/svg"
   xmlns="http://www.w3.org/2000/svg"
   xmlns:sodipodi="http://sodipodi.sourceforge.net/DTD/sodipodi-0.dtd"
   xmlns:inkscape="http://www.inkscape.org/namespaces/inkscape"
   width="15.875005mm"
   height="15.875mm"
   viewBox="0 0 15.875005 15.875"
   version="1.1"
   id="svg1837"
   inkscape:export-filename="C:\Users\Ali Sayid\Silver Star Cup.png"
   inkscape:export-xdpi="96"
   inkscape:export-ydpi="96"
   inkscape:version="1.0.2-2 (e86c870879, 2021-01-15)"
   sodipodi:docname="Gold_Cup.svg">
  <defs
     id="defs1831" />
  <sodipodi:namedview
     id="base"
     pagecolor="#ffffff"
     bordercolor="#666666"
     borderopacity="1.0"
     inkscape:pageopacity="0.0"
     inkscape:pageshadow="2"
     inkscape:zoom="3.959798"
     inkscape:cx="30.680067"
     inkscape:cy="31.067166"
     inkscape:document-units="mm"
     inkscape:current-layer="layer1"
     inkscape:document-rotation="0"
     showgrid="false"
     fit-margin-top="0"
     fit-margin-left="0"
     fit-margin-right="0"
     fit-margin-bottom="0"
     inkscape:window-width="1920"
     inkscape:window-height="1009"
     inkscape:window-x="-8"
     inkscape:window-y="-8"
     inkscape:window-maximized="1" />
  <metadata
     id="metadata1834">
    <rdf:RDF>
      <cc:Work
         rdf:about="">
        <dc:format>image/svg+xml</dc:format>
        <dc:type
           rdf:resource="http://purl.org/dc/dcmitype/StillImage" />
        <dc:title></dc:title>
      </cc:Work>
    </rdf:RDF>
  </metadata>
  <g
     inkscape:label="Layer 1"
     inkscape:groupmode="layer"
     id="layer1"
     transform="translate(-98.475985,-140.56242)">
    <path
       style="fill:#ffcc00;stroke-width:0.0489649"
       d="m 102.39986,155.94809 v -0.48935 h 0.39899 0.399 l -0.0131,-0.86913 -0.0131,-0.869 1.14656,-0.0143 1.14657,-0.0143 0.0122,-1.39451 0.0122,-1.39444 -0.28758,-0.16585 c -0.58046,-0.33494 -1.19797,-0.95362 -1.6116,-1.61458 l -0.18564,-0.29663 h -0.4687 c -1.17694,0 -2.03149,-0.39779 -2.7964,-1.29846 -0.729868,-0.85944 -1.189858,-1.94256 -1.458058,-3.43331 -0.13025,-0.72403 -0.20518,-1.49679 -0.20518,-2.11612 V 141.541 h 1.565498 1.56551 v -0.31941 c 0,-0.17566 0.0124,-0.39584 0.0275,-0.48927 l 0.0275,-0.1699 h 4.75365 4.75364 l 0.0287,0.16168 c 0.0158,0.0889 0.0235,0.30301 0.017,0.47574 l -0.0122,0.31406 1.57406,0.0143 1.57407,0.0143 v 0.43636 c 0,1.64927 -0.43782,3.5881 -1.06341,4.70908 -0.23186,0.4155 -0.77879,1.08904 -1.09357,1.3468 -0.63417,0.51924 -1.22691,0.73585 -2.14888,0.78539 l -0.62363,0.0333 -0.30473,0.43486 c -0.41858,0.59738 -0.88059,1.0603 -1.36728,1.37004 l -0.4103,0.26109 0.0109,1.38637 0.011,1.38646 1.13553,0.0143 1.13554,0.0143 v 0.869 0.86901 h 0.3969 0.39689 v 0.48927 0.48931 h -4.01295 -4.01298 z m 0.19705,-8.81112 c -0.25236,-0.61782 -0.4464,-1.292 -0.61362,-2.13207 -0.12842,-0.64513 -0.28901,-1.83219 -0.28901,-2.1362 0,-0.0683 -0.15369,-0.0776 -1.06939,-0.0652 l -1.069408,0.0143 0.0144,0.19027 c 0.0288,0.381 0.19693,1.23532 0.3408,1.73196 0.220898,0.76253 0.474258,1.2745 0.881338,1.78087 0.48352,0.60139 0.96944,0.89052 1.66905,0.99307 0.14824,0.0218 0.27576,0.0345 0.28337,0.0286 0.007,-0.006 -0.0588,-0.18863 -0.14753,-0.406 z m 8.13694,0.29924 c 0.99794,-0.28996 1.77806,-1.26457 2.1976,-2.74552 0.15097,-0.53281 0.31669,-1.42693 0.31669,-1.70856 v -0.19122 h -1.05292 -1.05293 l -0.0521,0.53008 c -0.14743,1.5017 -0.43382,2.76905 -0.86332,3.8205 l -0.15498,0.3795 h 0.18796 c 0.10342,0 0.31667,-0.0385 0.47396,-0.0839 z"
       id="path837" />
  </g>
</svg>
