<?xml version="1.0" encoding="UTF-8" standalone="no"?>
<svg
   xmlns:dc="http://purl.org/dc/elements/1.1/"
   xmlns:cc="http://creativecommons.org/ns#"
   xmlns:rdf="http://www.w3.org/1999/02/22-rdf-syntax-ns#"
   xmlns:svg="http://www.w3.org/2000/svg"
   xmlns="http://www.w3.org/2000/svg"
   xmlns:sodipodi="http://sodipodi.sourceforge.net/DTD/sodipodi-0.dtd"
   xmlns:inkscape="http://www.inkscape.org/namespaces/inkscape"
   version="1.1"
   id="svg4377"
   width="58.718349"
   height="60"
   viewBox="0 0 58.71835 60"
   sodipodi:docname="Google.svg"
   inkscape:version="1.0.2-2 (e86c870879, 2021-01-15)">
  <metadata
     id="metadata4383">
    <rdf:RDF>
      <cc:Work
         rdf:about="">
        <dc:format>image/svg+xml</dc:format>
        <dc:type
           rdf:resource="http://purl.org/dc/dcmitype/StillImage" />
        <dc:title></dc:title>
      </cc:Work>
    </rdf:RDF>
  </metadata>
  <defs
     id="defs4381" />
  <sodipodi:namedview
     pagecolor="#ffffff"
     bordercolor="#666666"
     borderopacity="1"
     objecttolerance="10"
     gridtolerance="10"
     guidetolerance="10"
     inkscape:pageopacity="0"
     inkscape:pageshadow="2"
     inkscape:window-width="1920"
     inkscape:window-height="1009"
     id="namedview4379"
     showgrid="false"
     fit-margin-top="0"
     fit-margin-left="0"
     fit-margin-right="0"
     fit-margin-bottom="0"
     inkscape:zoom="3.5083333"
     inkscape:cx="68.851207"
     inkscape:cy="82.299569"
     inkscape:window-x="-8"
     inkscape:window-y="-8"
     inkscape:window-maximized="1"
     inkscape:current-layer="g4385" />
  <g
     inkscape:groupmode="layer"
     inkscape:label="Image"
     id="g4385"
     transform="translate(16.755818,-5.5205431)">
    <g
       id="g4964"
       transform="matrix(0.12794758,0,0,0.12794758,-14.611952,4.814203)">
      <path
         style="fill:#00ff00;stroke-width:1.33333"
         d="M 194.53048,473.21385 C 170.61324,470.13771 137.51955,460.65311 116.76047,450.92507 85.776288,436.4054 46.239118,403.40292 24.169298,373.63735 16.148508,362.81971 7.1543476,348.19864 8.0540376,347.44008 8.3160776,347.21913 25.589688,333.46071 46.439828,316.8658 l 37.90935,-30.17256 3.72942,9.65941 c 18.918752,49.00059 58.206212,77.25912 116.451882,83.76106 30.80083,3.43828 65.27283,-4.16172 86.32376,-19.0317 l 3.65711,-2.5833 37.45027,30.34186 37.4503,30.34186 -5.62856,4.74212 c -32.74562,27.58848 -65.69037,42.2391 -109.424,48.66116 -15.07364,2.21349 -45.05527,2.52826 -59.82888,0.62814 z"
         id="path4950" />
      <path
         style="fill:#ff0000;stroke-width:1.33333"
         d="M 46.530478,161.10671 C 26.363818,144.98356 9.4266276,131.37152 8.8922876,130.85775 6.2651376,128.33171 23.732888,100.03851 38.331778,83.173451 64.334598,53.134237 113.09039,22.34654 147.68457,14.120713 193.89859,3.1319137 235.25875,2.6780417 274.01168,12.734441 c 34.35433,8.914962 70.21277,28.704747 90.5188,49.9561 l 5.33333,5.581622 -31.17071,30.45073 -31.1707,30.450737 -10.16263,-7.84946 c -18.24852,-14.09489 -38.77569,-22.192811 -66.28646,-26.149865 -14.73614,-2.119593 -16.30634,-2.113216 -29.05436,0.118 -24.42082,4.27424 -48.84952,14.314215 -67.89152,27.902805 -19.32626,13.79142 -37.972462,36.69862 -46.289362,56.86732 -2.21582,5.37342 -4.1665,9.90244 -4.33484,10.06448 -0.16835,0.16205 -16.80608,-12.89704 -36.97275,-29.0202 z"
         id="path4958" />
      <path
         style="fill:#ffff00;stroke-width:1.33333"
         d="m -1.1246624,329.73507 c -5.9013,-14.34668 -8.08483,-22.39779 -12.5844996,-46.40174 -2.54686,-13.58645 -3.00605,-20.62596 -3.04405,-46.66666 -0.0392,-26.87847 0.33604,-32.54858 3.03794,-45.90123 3.38261,-16.71664 10.6526696,-39.71028 15.7126096,-49.6956 l 3.23821,-6.39029 38.4297904,30.74642 38.42979,30.74643 -1.7563,6.77072 c -5.06129,19.5118 -4.91364,48.81327 0.3516,69.77431 1.20361,4.7916 1.96001,8.89569 1.68089,9.12017 -36.65227,29.47803 -75.0288604,59.77949 -76.3545804,60.28821 -1.20711,0.46322 -3.46691,-3.45766 -7.1414,-12.39074 z"
         id="path4956" />
      <path
         style="fill:#0066ff;stroke-width:1.33333"
         d="m 335.57513,385.0362 -36.54236,-29.63045 8.99579,-8.99579 c 14.31847,-14.31845 29.877,-40.07408 33.87496,-56.07663 l 0.91605,-3.66666 h -64.14454 -64.14455 v -46 -46 h 113.18279 113.18279 l 0.91984,33.66666 c 0.96587,35.35132 0.1104,48.67196 -4.5596,71 -6.21073,29.6944 -20.86242,64.0469 -36.11121,84.66667 -8.20624,11.09665 -26.10415,30.66667 -28.04644,30.66667 -0.53964,0 -17.42523,-13.33371 -37.52352,-29.63047 z"
         id="path4954" />
    </g>
  </g>
</svg>
