<?xml version="1.0" encoding="UTF-8" standalone="no"?>
<svg
   xmlns:dc="http://purl.org/dc/elements/1.1/"
   xmlns:cc="http://creativecommons.org/ns#"
   xmlns:rdf="http://www.w3.org/1999/02/22-rdf-syntax-ns#"
   xmlns:svg="http://www.w3.org/2000/svg"
   xmlns="http://www.w3.org/2000/svg"
   xmlns:sodipodi="http://sodipodi.sourceforge.net/DTD/sodipodi-0.dtd"
   xmlns:inkscape="http://www.inkscape.org/namespaces/inkscape"
   version="1.1"
   id="svg2"
   width="59.885551"
   height="60.000004"
   viewBox="0 0 59.885551 60.000004"
   sodipodi:docname="Settings.svg"
   inkscape:version="1.0.2-2 (e86c870879, 2021-01-15)">
  <metadata
     id="metadata8">
    <rdf:RDF>
      <cc:Work
         rdf:about="">
        <dc:format>image/svg+xml</dc:format>
        <dc:type
           rdf:resource="http://purl.org/dc/dcmitype/StillImage" />
        <dc:title></dc:title>
      </cc:Work>
    </rdf:RDF>
  </metadata>
  <defs
     id="defs6" />
  <sodipodi:namedview
     pagecolor="#ffffff"
     bordercolor="#666666"
     borderopacity="1"
     objecttolerance="10"
     gridtolerance="10"
     guidetolerance="10"
     inkscape:pageopacity="0"
     inkscape:pageshadow="2"
     inkscape:window-width="1920"
     inkscape:window-height="1009"
     id="namedview4"
     showgrid="false"
     fit-margin-top="0"
     fit-margin-left="0"
     fit-margin-right="0"
     fit-margin-bottom="0"
     inkscape:zoom="5.2923014"
     inkscape:cx="42.995414"
     inkscape:cy="32.715533"
     inkscape:window-x="-8"
     inkscape:window-y="-8"
     inkscape:window-maximized="1"
     inkscape:current-layer="g10" />
  <g
     inkscape:groupmode="layer"
     inkscape:label="Image"
     id="g10"
     transform="translate(195.06441,-68.025527)">
    <path
       style="fill:#000000;stroke-width:0.290211"
       d="m -176.00167,127.65585 c -3.07368,-0.87359 -6.00485,-2.85179 -6.00485,-4.05256 0,-0.20219 0.26119,-1.12678 0.58042,-2.05465 0.94528,-2.74751 0.63348,-4.66605 -1.06363,-6.54454 -1.51947,-1.68187 -3.80966,-2.13211 -7.04567,-1.38515 -1.24232,0.28676 -1.63142,0.26851 -2.43386,-0.11414 -1.7311,-0.82551 -3.55433,-5.61992 -2.99088,-7.86489 0.11937,-0.47563 0.70038,-1.01427 1.70655,-1.58212 2.02429,-1.14244 3.87009,-3.18064 4.28889,-4.735941 0.71108,-2.640741 -0.53074,-5.384593 -3.11798,-6.88931 -0.73354,-0.426623 -1.7202,-1.140084 -2.19257,-1.585469 -0.79902,-0.753374 -0.8503,-0.928015 -0.73611,-2.506747 0.15289,-2.113612 1.74915,-5.476135 2.89791,-6.104449 0.69038,-0.377597 0.99706,-0.3671 2.77925,0.09514 2.90774,0.75417 5.27837,0.169774 7.09155,-1.748163 1.4092,-1.490607 1.92992,-4.125183 1.39662,-7.066151 -0.30128,-1.661446 -0.28014,-1.904537 0.22482,-2.584705 1.15148,-1.551034 5.86698,-3.28239 7.69221,-2.824289 0.55824,0.14011 0.99131,0.604368 1.49978,1.607775 0.79061,1.560194 2.13462,3.032744 3.31109,3.627746 2.87581,1.454456 6.82028,0.281143 8.5141,-2.532581 0.36812,-0.611511 0.98798,-1.508737 1.37746,-1.993834 0.66363,-0.826555 0.80253,-0.872255 2.20968,-0.727024 2.06634,0.213265 4.19142,1.188371 5.49156,2.519847 1.18055,1.208988 1.20377,1.428758 0.45763,4.331077 -0.70493,2.742042 0.67812,5.901352 3.14984,7.195182 1.52922,0.800472 4.39861,0.912082 6.02101,0.2342 0.57302,-0.239424 1.35834,-0.435317 1.74514,-0.435317 1.41378,0 3.0643,2.505523 3.70668,5.626836 0.49529,2.40661 0.19064,3.198637 -1.57439,4.093043 -1.67794,0.850279 -3.66481,3.034082 -4.06224,4.464879 -0.87922,3.165277 0.54779,6.289885 3.58632,7.852655 0.73063,0.37578 1.56006,0.93939 1.84319,1.25247 1.15596,1.27826 0.066,5.72536 -1.88029,7.67164 -1.03028,1.03028 -1.04044,1.03319 -2.80202,0.80123 -5.15275,-0.67848 -7.06741,-0.20522 -8.72906,2.15762 -0.77643,1.10408 -0.87441,1.47729 -0.87249,3.32351 0.001,1.14387 0.1911,2.69853 0.42202,3.45479 0.39439,1.29158 0.38376,1.42367 -0.17519,2.17658 -0.88785,1.19593 -2.90614,2.32754 -5.12509,2.8735 -1.91568,0.47135 -1.99678,0.46868 -2.74571,-0.0905 -0.42445,-0.31689 -1.0765,-1.15252 -1.44901,-1.85694 -2.4492,-4.6315 -7.58237,-5.41419 -10.96351,-1.67167 -0.58432,0.64676 -1.23805,1.59634 -1.45274,2.11018 -0.21469,0.51383 -0.58214,1.0934 -0.81654,1.28794 -0.66113,0.54869 -2.22633,0.62915 -3.75989,0.19328 z m 13.47225,-15.82894 c 4.1289,-0.7656 8.07444,-3.77939 9.97061,-7.61603 3.54278,-7.168341 0.76989,-15.286058 -6.44224,-18.859806 -2.29659,-1.138003 -2.66142,-1.229666 -5.31924,-1.336417 -2.29418,-0.09215 -3.24067,0.0033 -4.82843,0.486861 -5.98523,1.822876 -9.95569,7.173747 -9.95569,13.417004 0,8.817278 7.96894,15.504168 16.57499,13.908388 z"
       id="path837" />
  </g>
</svg>
