<?xml version="1.0" encoding="UTF-8" standalone="no"?>
<svg
   xmlns:dc="http://purl.org/dc/elements/1.1/"
   xmlns:cc="http://creativecommons.org/ns#"
   xmlns:rdf="http://www.w3.org/1999/02/22-rdf-syntax-ns#"
   xmlns:svg="http://www.w3.org/2000/svg"
   xmlns="http://www.w3.org/2000/svg"
   xmlns:sodipodi="http://sodipodi.sourceforge.net/DTD/sodipodi-0.dtd"
   xmlns:inkscape="http://www.inkscape.org/namespaces/inkscape"
   width="15.875005mm"
   height="15.875mm"
   viewBox="0 0 15.875005 15.875"
   version="1.1"
   id="svg1837"
   inkscape:export-filename="C:\Users\Ali Sayid\Silver Star Cup.png"
   inkscape:export-xdpi="96"
   inkscape:export-ydpi="96"
   inkscape:version="1.0.2-2 (e86c870879, 2021-01-15)"
   sodipodi:docname="Silver_Medal.svg">
  <defs
     id="defs1831" />
  <sodipodi:namedview
     id="base"
     pagecolor="#ffffff"
     bordercolor="#666666"
     borderopacity="1.0"
     inkscape:pageopacity="0.0"
     inkscape:pageshadow="2"
     inkscape:zoom="3.959798"
     inkscape:cx="30.680067"
     inkscape:cy="31.067166"
     inkscape:document-units="mm"
     inkscape:current-layer="layer1"
     inkscape:document-rotation="0"
     showgrid="false"
     fit-margin-top="0"
     fit-margin-left="0"
     fit-margin-right="0"
     fit-margin-bottom="0"
     inkscape:window-width="1920"
     inkscape:window-height="1009"
     inkscape:window-x="-8"
     inkscape:window-y="-8"
     inkscape:window-maximized="1" />
  <metadata
     id="metadata1834">
    <rdf:RDF>
      <cc:Work
         rdf:about="">
        <dc:format>image/svg+xml</dc:format>
        <dc:type
           rdf:resource="http://purl.org/dc/dcmitype/StillImage" />
        <dc:title></dc:title>
      </cc:Work>
    </rdf:RDF>
  </metadata>
  <g
     inkscape:label="Layer 1"
     inkscape:groupmode="layer"
     id="layer1"
     transform="translate(-98.475985,-140.56242)">
    <path
       id="rect1287-3"
       style="fill:#ff0000;stroke-width:0.101431"
       d="m 103.82455,140.56242 h -2.5305 l 3.58356,6.0293 h 3.07176 l 3.58357,-6.02925 -2.53051,-5e-5 -2.5891,4.45183 z"
       sodipodi:nodetypes="cccccccc" />
    <path
       id="path1029-3"
       style="fill:#b3b3b3;stroke-width:0.0783953"
       d="m 106.41333,146.36362 a 5.0368101,5.0368101 0 0 0 -5.03673,5.03674 5.0368101,5.0368101 0 0 0 5.03673,5.03706 5.0368101,5.0368101 0 0 0 5.03706,-5.03706 5.0368101,5.0368101 0 0 0 -5.03706,-5.03674 z m 0,0.51957 a 4.5173807,4.5173807 0 0 1 4.51749,4.51749 4.5173807,4.5173807 0 0 1 -4.51716,4.51717 4.5173807,4.5173807 0 0 1 -4.5175,-4.51717 4.5173807,4.5173807 0 0 1 4.51717,-4.51749 z m -0.002,0.33958 a 4.177839,4.177839 0 0 0 -4.17596,4.17791 4.177839,4.177839 0 0 0 4.17823,4.17759 4.177839,4.177839 0 0 0 4.17791,-4.17759 4.177839,4.177839 0 0 0 -4.17823,-4.17791 4.177839,4.177839 0 0 0 -0.002,0 z m 0.007,0.53122 0.83293,2.51141 2.64575,0.0259 -2.13072,1.56841 0.79247,2.52404 -2.14982,-1.54187 -2.15564,1.5341 0.80185,-2.52145 -2.12489,-1.57618 2.64575,-0.0162 z" />
  </g>
</svg>
